<svg width="13" height="16" viewBox="0 0 13 16" fill="none" xmlns="http://www.w3.org/2000/svg">
<path id="Vector" d="M1.44444 15.2222C1.04722 15.2222 0.707176 15.0808 0.424306 14.7979C0.141435 14.515 0 14.175 0 13.7778V3.66667C0 3.26945 0.141435 2.9294 0.424306 2.64653C0.707176 2.36366 1.04722 2.22222 1.44444 2.22222H2.16667V1.5C2.16667 1.29537 2.23588 1.12384 2.37431 0.985418C2.51273 0.846992 2.68426 0.777779 2.88889 0.777779C3.09352 0.777779 3.26505 0.846992 3.40347 0.985418C3.5419 1.12384 3.61111 1.29537 3.61111 1.5V2.22222H9.38889V1.5C9.38889 1.29537 9.4581 1.12384 9.59653 0.985418C9.73495 0.846992 9.90648 0.777779 10.1111 0.777779C10.3157 0.777779 10.4873 0.846992 10.6257 0.985418C10.7641 1.12384 10.8333 1.29537 10.8333 1.5V2.22222H11.5556C11.9528 2.22222 12.2928 2.36366 12.5757 2.64653C12.8586 2.9294 13 3.26945 13 3.66667V13.7778C13 14.175 12.8586 14.515 12.5757 14.7979C12.2928 15.0808 11.9528 15.2222 11.5556 15.2222H1.44444ZM1.44444 13.7778H11.5556V6.55556H1.44444V13.7778ZM6.5 9.44445C6.29537 9.44445 6.12384 9.37523 5.98542 9.23681C5.84699 9.09838 5.77778 8.92685 5.77778 8.72222C5.77778 8.51759 5.84699 8.34607 5.98542 8.20764C6.12384 8.06921 6.29537 8 6.5 8C6.70463 8 6.87616 8.06921 7.01458 8.20764C7.15301 8.34607 7.22222 8.51759 7.22222 8.72222C7.22222 8.92685 7.15301 9.09838 7.01458 9.23681C6.87616 9.37523 6.70463 9.44445 6.5 9.44445ZM3.61111 9.44445C3.40648 9.44445 3.23495 9.37523 3.09653 9.23681C2.9581 9.09838 2.88889 8.92685 2.88889 8.72222C2.88889 8.51759 2.9581 8.34607 3.09653 8.20764C3.23495 8.06921 3.40648 8 3.61111 8C3.81574 8 3.98727 8.06921 4.12569 8.20764C4.26412 8.34607 4.33333 8.51759 4.33333 8.72222C4.33333 8.92685 4.26412 9.09838 4.12569 9.23681C3.98727 9.37523 3.81574 9.44445 3.61111 9.44445ZM9.38889 9.44445C9.18426 9.44445 9.01273 9.37523 8.87431 9.23681C8.73588 9.09838 8.66667 8.92685 8.66667 8.72222C8.66667 8.51759 8.73588 8.34607 8.87431 8.20764C9.01273 8.06921 9.18426 8 9.38889 8C9.59352 8 9.76505 8.06921 9.90347 8.20764C10.0419 8.34607 10.1111 8.51759 10.1111 8.72222C10.1111 8.92685 10.0419 9.09838 9.90347 9.23681C9.76505 9.37523 9.59352 9.44445 9.38889 9.44445ZM6.5 12.3333C6.29537 12.3333 6.12384 12.2641 5.98542 12.1257C5.84699 11.9873 5.77778 11.8157 5.77778 11.6111C5.77778 11.4065 5.84699 11.235 5.98542 11.0965C6.12384 10.9581 6.29537 10.8889 6.5 10.8889C6.70463 10.8889 6.87616 10.9581 7.01458 11.0965C7.15301 11.235 7.22222 11.4065 7.22222 11.6111C7.22222 11.8157 7.15301 11.9873 7.01458 12.1257C6.87616 12.2641 6.70463 12.3333 6.5 12.3333ZM3.61111 12.3333C3.40648 12.3333 3.23495 12.2641 3.09653 12.1257C2.9581 11.9873 2.88889 11.8157 2.88889 11.6111C2.88889 11.4065 2.9581 11.235 3.09653 11.0965C3.23495 10.9581 3.40648 10.8889 3.61111 10.8889C3.81574 10.8889 3.98727 10.9581 4.12569 11.0965C4.26412 11.235 4.33333 11.4065 4.33333 11.6111C4.33333 11.8157 4.26412 11.9873 4.12569 12.1257C3.98727 12.2641 3.81574 12.3333 3.61111 12.3333ZM9.38889 12.3333C9.18426 12.3333 9.01273 12.2641 8.87431 12.1257C8.73588 11.9873 8.66667 11.8157 8.66667 11.6111C8.66667 11.4065 8.73588 11.235 8.87431 11.0965C9.01273 10.9581 9.18426 10.8889 9.38889 10.8889C9.59352 10.8889 9.76505 10.9581 9.90347 11.0965C10.0419 11.235 10.1111 11.4065 10.1111 11.6111C10.1111 11.8157 10.0419 11.9873 9.90347 12.1257C9.76505 12.2641 9.59352 12.3333 9.38889 12.3333Z" fill="#1D3557"/>
</svg>
