<svg width="18" height="18" viewBox="0 0 18 18" fill="none" xmlns="http://www.w3.org/2000/svg">
<g id="Frame 8">
<path id="Vector" d="M0 15.9429V6.68571C0 6.36 0.0728571 6.05143 0.218571 5.76C0.364286 5.46857 0.565714 5.22857 0.822857 5.04L6.99429 0.411429C7.35429 0.137143 7.76571 0 8.22857 0C8.69143 0 9.10286 0.137143 9.46286 0.411429L15.6343 5.04C15.8914 5.22857 16.0929 5.46857 16.2386 5.76C16.3843 6.05143 16.4571 6.36 16.4571 6.68571V15.9429C16.4571 16.5086 16.2557 16.9929 15.8529 17.3957C15.45 17.7986 14.9657 18 14.4 18H11.3143C11.0229 18 10.7786 17.9014 10.5814 17.7043C10.3843 17.5071 10.2857 17.2629 10.2857 16.9714V11.8286C10.2857 11.5371 10.1871 11.2929 9.99 11.0957C9.79286 10.8986 9.54857 10.8 9.25714 10.8H7.2C6.90857 10.8 6.66429 10.8986 6.46714 11.0957C6.27 11.2929 6.17143 11.5371 6.17143 11.8286V16.9714C6.17143 17.2629 6.07286 17.5071 5.87571 17.7043C5.67857 17.9014 5.43429 18 5.14286 18H2.05714C1.49143 18 1.00714 17.7986 0.604286 17.3957C0.201429 16.9929 0 16.5086 0 15.9429Z" fill="#1D3557"/>
</g>
</svg>
