<svg width="18" height="17" viewBox="0 0 18 17" fill="none" xmlns="http://www.w3.org/2000/svg">
<path id="Vector" d="M1.8 14.4H5.4V7.2H1.8V14.4ZM7.2 14.4H10.8V1.8H7.2V14.4ZM12.6 14.4H16.2V9H12.6V14.4ZM0 14.4V7.2C0 6.705 0.17625 6.28125 0.52875 5.92875C0.88125 5.57625 1.305 5.4 1.8 5.4H5.4V1.8C5.4 1.305 5.57625 0.88125 5.92875 0.52875C6.28125 0.17625 6.705 0 7.2 0H10.8C11.295 0 11.7188 0.17625 12.0713 0.52875C12.4238 0.88125 12.6 1.305 12.6 1.8V7.2H16.2C16.695 7.2 17.1188 7.37625 17.4713 7.72875C17.8238 8.08125 18 8.505 18 9V14.4C18 14.895 17.8238 15.3188 17.4713 15.6713C17.1188 16.0238 16.695 16.2 16.2 16.2H1.8C1.305 16.2 0.88125 16.0238 0.52875 15.6713C0.17625 15.3188 0 14.895 0 14.4Z" fill="#1D3557"/>
</svg>
