<svg width="18" height="18" viewBox="0 0 18 18" fill="none" xmlns="http://www.w3.org/2000/svg">
<g id="Frame 9">
<path id="Vector" d="M2 18C1.45 18 0.979167 17.8042 0.5875 17.4125C0.195833 17.0208 0 16.55 0 16V2C0 1.45 0.195833 0.979167 0.5875 0.5875C0.979167 0.195833 1.45 0 2 0H16C16.55 0 17.0208 0.195833 17.4125 0.5875C17.8042 0.979167 18 1.45 18 2V16C18 16.55 17.8042 17.0208 17.4125 17.4125C17.0208 17.8042 16.55 18 16 18H2ZM2 16H16V2H2V16ZM5 4C4.71667 4 4.47917 4.09583 4.2875 4.2875C4.09583 4.47917 4 4.71667 4 5V13C4 13.2833 4.09583 13.5208 4.2875 13.7125C4.47917 13.9042 4.71667 14 5 14C5.28333 14 5.52083 13.9042 5.7125 13.7125C5.90417 13.5208 6 13.2833 6 13V5C6 4.71667 5.90417 4.47917 5.7125 4.2875C5.52083 4.09583 5.28333 4 5 4ZM13 4C12.7167 4 12.4792 4.09583 12.2875 4.2875C12.0958 4.47917 12 4.71667 12 5V11C12 11.2833 12.0958 11.5208 12.2875 11.7125C12.4792 11.9042 12.7167 12 13 12C13.2833 12 13.5208 11.9042 13.7125 11.7125C13.9042 11.5208 14 11.2833 14 11V5C14 4.71667 13.9042 4.47917 13.7125 4.2875C13.5208 4.09583 13.2833 4 13 4ZM9 4C8.71667 4 8.47917 4.09583 8.2875 4.2875C8.09583 4.47917 8 4.71667 8 5V8C8 8.28333 8.09583 8.52083 8.2875 8.7125C8.47917 8.90417 8.71667 9 9 9C9.28333 9 9.52083 8.90417 9.7125 8.7125C9.90417 8.52083 10 8.28333 10 8V5C10 4.71667 9.90417 4.47917 9.7125 4.2875C9.52083 4.09583 9.28333 4 9 4Z" fill="#1D3557"/>
</g>
</svg>
